<?xml version="1.0" encoding="UTF-8" standalone="no"?>
<!-- Created with Inkscape (http://www.inkscape.org/) -->

<svg
   width="224.789mm"
   height="57.597mm"
   viewBox="0 0 224.789 57.597"
   version="1.1"
   id="svg5"
   xmlns="http://www.w3.org/2000/svg"
   xmlns:svg="http://www.w3.org/2000/svg">
  <defs
     id="defs2" />
  <g
     id="layer1">
    <g
       id="g16360">
      <g
         aria-label="OPenguin"
         id="text1419"
         style="font-size:50.8px;line-height:1.25;font-family:'Burbank Small';-inkscape-font-specification:'Burbank Small';fill:#dcdcdc;stroke:#dcdcdc;stroke-width:7">
        <path
           d="m 18.995293,41.092 c 9.347199,0 15.544799,-5.9944 15.544799,-18.4912 0,-11.5824 -5.4356,-18.7451996 -15.443199,-18.7451996 -9.8044003,0 -15.6972002,7.2135996 -15.5956002,18.8467996 0,11.7856 5.8927999,18.3388 15.4940002,18.3896 z m 0,-6.1468 c -4.5212,0 -7.2136,-4.2672 -7.1628,-12.3952 0,-8.2296 2.54,-12.5476 7.2136,-12.5476 4.4704,0 7.111999,4.0132 7.111999,12.4968 0,8.9408 -2.997199,12.446 -7.162799,12.446 z"
           id="path16307" />
        <path
           d="m 40.026476,39.7204 c 3.6576,-0.1016 7.9248,-0.0508 7.9248,-0.0508 l -0.2032,-9.9568 c 0,0 0.7112,0.0508 1.6256,0.0508 9.905999,0 16.713199,-3.7592 16.713199,-12.7 0,-8.4835996 -7.0104,-12.2427996 -18.033999,-12.2427996 -2.4892,0 -5.2324,0.2032 -8.0772,0.6096 0.2032,21.2851996 0.0508,34.2899996 0.0508,34.2899996 z m 7.5692,-28.6512 c 0.9144,-0.1016 1.778,-0.1524 2.5908,-0.1524 5.7404,0 8.229599,2.5908 8.229599,6.1468 0,4.6228 -3.098799,6.858 -8.940799,6.858 -0.6096,0 -1.2192,0 -1.8288,-0.0508 -0.0508,-5.2324 -0.0508,-7.7216 -0.0508,-12.8016 z"
           id="path16309" />
        <path
           d="m 81.479246,40.9904 c 5.5372,0 9.8044,-2.54 12.3444,-7.6708 -4.5212,-1.0668 -6.7564,-1.8288 -6.7564,-1.8288 -1.0668,2.9972 -2.9464,4.318 -5.334,4.318 -3.302,0 -5.08,-2.54 -5.4356,-6.9088 11.3284,-0.254 16.9164,-0.3048 16.9164,-0.3048 1.2192,-8.2804 -2.4892,-14.8336 -11.7856,-14.8844 -8.4328,0 -12.9032,6.2484 -12.9032,13.7668 0,8.0772 4.7244,13.5128 12.954,13.5128 z m 0,-22.7584 c 3.1496,0 4.5212,2.4892 4.6228,6.1468 l -9.7028,0.4064 c 0.508,-4.1656 2.286,-6.5532 5.08,-6.5532 z"
           id="path16311" />
        <path
           d="m 114.65161,41.0412 c 0,0 5.2324,-0.0508 7.4676,-0.0508 0,0 0.0508,-14.224 -0.1016,-17.9324 -0.2032,-5.588 -2.6416,-9.1948 -8.0772,-9.2456 -4.1148,-0.0508 -7.4676,2.4384 -9.2964,7.1628 -0.0508,-2.6924 0.0508,-5.7912 0.0508,-5.7912 -2.794,0.1016 -5.994401,0.0508 -5.994401,0.0508 0.1016,14.4272 -0.0508,23.9268 -0.0508,23.9268 3.352801,-0.1016 7.518401,0 7.518401,0 0,0 -0.1016,-8.2804 0.0508,-11.938 0.0508,-3.9116 2.032,-7.0612 5.08,-7.0612 2.6416,0 3.4036,1.9304 3.4544,4.9276 0.0508,7.7216 -0.1016,15.9512 -0.1016,15.9512 z"
           id="path16313" />
        <path
           d="m 137.56236,54.0968 c 8.2296,0 14.1732,-3.6068 14.1732,-9.5504 0,-4.4196 -2.6416,-7.1628 -11.3284,-7.8232 -4.2672,-0.3556 -4.9276,-0.9144 -4.9276,-1.6764 0,-0.4572 0.3048,-1.016 1.27,-1.5748 0,0 1.27,0.1016 1.9812,0.1016 5.9944,0 11.7856,-3.1496 11.7856,-10.0076 0,-2.9972 -1.27,-5.7404 -3.6576,-7.62 2.8448,-3.556 4.7752,-5.6896 4.7752,-5.6896 -3.81,-1.8287996 -6.1976,-3.2003996 -6.1976,-3.2003996 l -2.286,6.9595996 c -1.4224,-0.4064 -2.9972,-0.6604 -4.7752,-0.6604 -6.8072,0 -11.9888,3.9624 -11.9888,10.0076 -0.0508,4.572 2.4892,7.8232 6.6548,9.3472 -2.794,1.0668 -4.318,2.6924 -4.318,4.7244 0,1.6256 0.8636,3.048 2.5908,3.9624 -3.9624,1.27 -5.6896,3.6068 -5.6896,6.0452 0,3.9116 4.4196,6.6548 11.938,6.6548 z m 0.8636,-25.0952 c -3.1496,0 -5.0292,-2.1844 -5.0292,-5.4864 0,-3.0988 1.8796,-5.1816 5.0292,-5.1816 3.2004,0 4.9276,2.3368 4.9276,5.1816 0,3.8608 -2.1336,5.4864 -4.9276,5.4864 z m 6.2484,16.8656 c 0,1.8796 -2.3368,3.6576 -6.35,3.6576 -3.6576,0 -5.3848,-1.4732 -5.3848,-3.302 0,-1.1684 0.6096,-2.4384 1.8796,-3.4544 6.858,0.254 9.8552,0.9144 9.8552,3.0988 z"
           id="path16315" />
        <path
           d="m 163.77504,40.1776 c 3.7592,0 6.7564,-1.9812 8.2296,-5.3848 0,3.302 -0.1016,5.7404 -0.1016,5.7404 4.064,-0.0508 6.2484,0.0508 6.2484,0.0508 -0.1524,-15.9004 -0.0508,-26.8732 -0.0508,-26.8732 -5.588,0 -7.4168,-0.1016 -7.4168,-0.1016 0,0 0.3048,6.9088 0.0508,13.3604 -0.1524,4.5212 -2.032,7.1628 -4.7244,7.1628 -2.8448,0 -3.9624,-1.8796 -3.9624,-5.4864 0,-7.874 0.2032,-13.462 0.2032,-13.462 -4.9784,-0.0508 -7.4676,-0.2032 -7.4676,-0.2032 0,0 0.0508,7.9756 0.0508,13.208 0,8.2296 3.048,11.9888 8.9408,11.9888 z"
           id="path16317" />
        <path
           d="m 184.39978,39.9744 c 4.2672,-0.1016 7.4676,-0.0508 7.4676,-0.0508 -0.2032,-13.8176 -0.2032,-25.4 -0.2032,-25.4 -4.572,0.1016 -7.4168,0.1016 -7.4168,0.1016 0.2032,18.6436 0.1524,25.3492 0.1524,25.3492 z m 3.6576,-27.9908 c 3.1496,0 5.0292,-1.524 5.0292,-4.3179996 0,-2.4384 -1.8796,-4.1656 -5.0292,-4.1656 -3.048,0 -5.1816,1.524 -5.1816,4.1656 0,2.7431996 1.9812,4.3179996 5.1816,4.3179996 z"
           id="path16319" />
        <path
           d="m 213.81291,41.0412 c 0,0 5.2324,-0.0508 7.4676,-0.0508 0,0 0.0508,-14.224 -0.1016,-17.9324 -0.2032,-5.588 -2.6416,-9.1948 -8.0772,-9.2456 -4.1148,-0.0508 -7.4676,2.4384 -9.2964,7.1628 -0.0508,-2.6924 0.0508,-5.7912 0.0508,-5.7912 -2.794,0.1016 -5.9944,0.0508 -5.9944,0.0508 0.1016,14.4272 -0.0508,23.9268 -0.0508,23.9268 3.3528,-0.1016 7.5184,0 7.5184,0 0,0 -0.1016,-8.2804 0.0508,-11.938 0.0508,-3.9116 2.032,-7.0612 5.08,-7.0612 2.6416,0 3.4036,1.9304 3.4544,4.9276 0.0508,7.7216 -0.1016,15.9512 -0.1016,15.9512 z"
           id="path16321" />
      </g>
      <g
         aria-label="OPenguin"
         id="text15918"
         style="font-size:50.8px;line-height:1.25;font-family:'Burbank Small';-inkscape-font-specification:'Burbank Small';stroke:#dcdcdc;stroke-width:0">
        <path
           d="m 18.995293,41.092 c 9.347199,0 15.544799,-5.9944 15.544799,-18.4912 0,-11.5824 -5.4356,-18.7451996 -15.443199,-18.7451996 -9.8044003,0 -15.6972002,7.2135996 -15.5956002,18.8467996 0,11.7856 5.8927999,18.3388 15.4940002,18.3896 z m 0,-6.1468 c -4.5212,0 -7.2136,-4.2672 -7.1628,-12.3952 0,-8.2296 2.54,-12.5476 7.2136,-12.5476 4.4704,0 7.111999,4.0132 7.111999,12.4968 0,8.9408 -2.997199,12.446 -7.162799,12.446 z"
           style="fill:#0000ff"
           id="path16290" />
        <path
           d="m 40.026476,39.7204 c 3.6576,-0.1016 7.9248,-0.0508 7.9248,-0.0508 l -0.2032,-9.9568 c 0,0 0.7112,0.0508 1.6256,0.0508 9.905999,0 16.713199,-3.7592 16.713199,-12.7 0,-8.4835996 -7.0104,-12.2427996 -18.033999,-12.2427996 -2.4892,0 -5.2324,0.2032 -8.0772,0.6096 0.2032,21.2851996 0.0508,34.2899996 0.0508,34.2899996 z m 7.5692,-28.6512 c 0.9144,-0.1016 1.778,-0.1524 2.5908,-0.1524 5.7404,0 8.229599,2.5908 8.229599,6.1468 0,4.6228 -3.098799,6.858 -8.940799,6.858 -0.6096,0 -1.2192,0 -1.8288,-0.0508 -0.0508,-5.2324 -0.0508,-7.7216 -0.0508,-12.8016 z"
           style="fill:#00b5ff"
           id="path16292" />
        <path
           d="m 81.479246,40.9904 c 5.5372,0 9.8044,-2.54 12.3444,-7.6708 -4.5212,-1.0668 -6.7564,-1.8288 -6.7564,-1.8288 -1.0668,2.9972 -2.9464,4.318 -5.334,4.318 -3.302,0 -5.08,-2.54 -5.4356,-6.9088 11.3284,-0.254 16.9164,-0.3048 16.9164,-0.3048 1.2192,-8.2804 -2.4892,-14.8336 -11.7856,-14.8844 -8.4328,0 -12.9032,6.2484 -12.9032,13.7668 0,8.0772 4.7244,13.5128 12.954,13.5128 z m 0,-22.7584 c 3.1496,0 4.5212,2.4892 4.6228,6.1468 l -9.7028,0.4064 c 0.508,-4.1656 2.286,-6.5532 5.08,-6.5532 z"
           style="fill:#00b5ff"
           id="path16294" />
        <path
           d="m 114.65161,41.0412 c 0,0 5.2324,-0.0508 7.4676,-0.0508 0,0 0.0508,-14.224 -0.1016,-17.9324 -0.2032,-5.588 -2.6416,-9.1948 -8.0772,-9.2456 -4.1148,-0.0508 -7.4676,2.4384 -9.2964,7.1628 -0.0508,-2.6924 0.0508,-5.7912 0.0508,-5.7912 -2.794,0.1016 -5.994401,0.0508 -5.994401,0.0508 0.1016,14.4272 -0.0508,23.9268 -0.0508,23.9268 3.352801,-0.1016 7.518401,0 7.518401,0 0,0 -0.1016,-8.2804 0.0508,-11.938 0.0508,-3.9116 2.032,-7.0612 5.08,-7.0612 2.6416,0 3.4036,1.9304 3.4544,4.9276 0.0508,7.7216 -0.1016,15.9512 -0.1016,15.9512 z"
           style="fill:#00b5ff"
           id="path16296" />
        <path
           d="m 137.56236,54.0968 c 8.2296,0 14.1732,-3.6068 14.1732,-9.5504 0,-4.4196 -2.6416,-7.1628 -11.3284,-7.8232 -4.2672,-0.3556 -4.9276,-0.9144 -4.9276,-1.6764 0,-0.4572 0.3048,-1.016 1.27,-1.5748 0,0 1.27,0.1016 1.9812,0.1016 5.9944,0 11.7856,-3.1496 11.7856,-10.0076 0,-2.9972 -1.27,-5.7404 -3.6576,-7.62 2.8448,-3.556 4.7752,-5.6896 4.7752,-5.6896 -3.81,-1.8287996 -6.1976,-3.2003996 -6.1976,-3.2003996 l -2.286,6.9595996 c -1.4224,-0.4064 -2.9972,-0.6604 -4.7752,-0.6604 -6.8072,0 -11.9888,3.9624 -11.9888,10.0076 -0.0508,4.572 2.4892,7.8232 6.6548,9.3472 -2.794,1.0668 -4.318,2.6924 -4.318,4.7244 0,1.6256 0.8636,3.048 2.5908,3.9624 -3.9624,1.27 -5.6896,3.6068 -5.6896,6.0452 0,3.9116 4.4196,6.6548 11.938,6.6548 z m 0.8636,-25.0952 c -3.1496,0 -5.0292,-2.1844 -5.0292,-5.4864 0,-3.0988 1.8796,-5.1816 5.0292,-5.1816 3.2004,0 4.9276,2.3368 4.9276,5.1816 0,3.8608 -2.1336,5.4864 -4.9276,5.4864 z m 6.2484,16.8656 c 0,1.8796 -2.3368,3.6576 -6.35,3.6576 -3.6576,0 -5.3848,-1.4732 -5.3848,-3.302 0,-1.1684 0.6096,-2.4384 1.8796,-3.4544 6.858,0.254 9.8552,0.9144 9.8552,3.0988 z"
           style="fill:#00b5ff"
           id="path16298" />
        <path
           d="m 163.77504,40.1776 c 3.7592,0 6.7564,-1.9812 8.2296,-5.3848 0,3.302 -0.1016,5.7404 -0.1016,5.7404 4.064,-0.0508 6.2484,0.0508 6.2484,0.0508 -0.1524,-15.9004 -0.0508,-26.8732 -0.0508,-26.8732 -5.588,0 -7.4168,-0.1016 -7.4168,-0.1016 0,0 0.3048,6.9088 0.0508,13.3604 -0.1524,4.5212 -2.032,7.1628 -4.7244,7.1628 -2.8448,0 -3.9624,-1.8796 -3.9624,-5.4864 0,-7.874 0.2032,-13.462 0.2032,-13.462 -4.9784,-0.0508 -7.4676,-0.2032 -7.4676,-0.2032 0,0 0.0508,7.9756 0.0508,13.208 0,8.2296 3.048,11.9888 8.9408,11.9888 z"
           style="fill:#00b5ff"
           id="path16300" />
        <path
           d="m 184.39978,39.9744 c 4.2672,-0.1016 7.4676,-0.0508 7.4676,-0.0508 -0.2032,-13.8176 -0.2032,-25.4 -0.2032,-25.4 -4.572,0.1016 -7.4168,0.1016 -7.4168,0.1016 0.2032,18.6436 0.1524,25.3492 0.1524,25.3492 z m 3.6576,-27.9908 c 3.1496,0 5.0292,-1.524 5.0292,-4.3179996 0,-2.4384 -1.8796,-4.1656 -5.0292,-4.1656 -3.048,0 -5.1816,1.524 -5.1816,4.1656 0,2.7431996 1.9812,4.3179996 5.1816,4.3179996 z"
           style="fill:#00b5ff"
           id="path16302" />
        <path
           d="m 213.81291,41.0412 c 0,0 5.2324,-0.0508 7.4676,-0.0508 0,0 0.0508,-14.224 -0.1016,-17.9324 -0.2032,-5.588 -2.6416,-9.1948 -8.0772,-9.2456 -4.1148,-0.0508 -7.4676,2.4384 -9.2964,7.1628 -0.0508,-2.6924 0.0508,-5.7912 0.0508,-5.7912 -2.794,0.1016 -5.9944,0.0508 -5.9944,0.0508 0.1016,14.4272 -0.0508,23.9268 -0.0508,23.9268 3.3528,-0.1016 7.5184,0 7.5184,0 0,0 -0.1016,-8.2804 0.0508,-11.938 0.0508,-3.9116 2.032,-7.0612 5.08,-7.0612 2.6416,0 3.4036,1.9304 3.4544,4.9276 0.0508,7.7216 -0.1016,15.9512 -0.1016,15.9512 z"
           style="fill:#00b5ff"
           id="path16304" />
      </g>
    </g>
  </g>
</svg>
