<?xml version="1.0" encoding="utf-8"?>
<!-- Generator: Adobe Illustrator 16.0.0, SVG Export Plug-In . SVG Version: 6.00 Build 0)  -->
<!DOCTYPE svg PUBLIC "-//W3C//DTD SVG 1.1//EN" "http://www.w3.org/Graphics/SVG/1.1/DTD/svg11.dtd">
<svg version="1.1" id="Layer_1" xmlns="http://www.w3.org/2000/svg" xmlns:xlink="http://www.w3.org/1999/xlink" x="0px" y="0px"
	 width="1280px" height="720px" viewBox="0 0 1280 720" enable-background="new 0 0 1280 720" xml:space="preserve">
<symbol  id="Symbol_32" viewBox="-182.394 -164.726 352.443 304.53">
	<g id="Layer_3_1_">
		<path fill-rule="evenodd" clip-rule="evenodd" fill="#314692" d="M0.35,139.8c23.167,0.233,42.8-9.483,58.9-29.149
			c6.8-8.301,14.933-14.934,24.4-19.9c51.1-26.733,79.9-68.283,86.4-124.65c-4.5-1.7-8.433-0.383-11.8,3.95
			C143.217-10.883,129.467,9.1,117,30l-13.25,5.75l1.45-5.3c6.867-26.4,7.05-52.8,0.55-79.2l-1.25-31l-0.5-0.5
			c-0.5-5.6-1.967-10.983-4.4-16.15L30-161.5c-18.667-3.833-32.5-4.25-41.5-1.25l-14.1,3.45l-21.45-1.4
			c-20.9-1.233-39.717,4.25-56.45,16.45l-6.95,8.2c-9.833,11.966-15.184,25.566-16.05,40.8c-0.3-4.733-1.767-9.067-4.4-13
			c-5.233-7.733-10.216-15.5-14.949-23.3c-8.934-14.733-20.284-24.2-34.051-28.4c-2.233,10.7-2.966,21.517-2.199,32.45
			c2.233,31.5,14.017,59,35.35,82.5v0.5L-136-27l19.5,26.25l22.5,23.5l11.25,18.5l43.25,65.25c6.934,10.366,15.15,19.533,24.65,27.5
			C-10.35,137.8-5.283,139.733,0.35,139.8z M7.7,57.7l-0.2,0.2l-5.6-4.7L-1.75,50l2,0.5l1.95,2.3L7.7,57.7z"/>
		<polygon fill-rule="evenodd" clip-rule="evenodd" fill="#23366E" points="7.7,57.7 2.2,52.8 0.25,50.5 -1.75,50 1.9,53.2 
			7.5,57.9 		"/>
	</g>
</symbol>
<symbol  id="Symbol_40" viewBox="-182.394 -164.726 352.443 304.53">
	<use xlink:href="#Symbol_32"  width="352.443" height="304.53" x="-182.394" y="-164.726" overflow="visible"/>
</symbol>
<symbol  id="Symbol_41" viewBox="-38.25 -164.726 144 161.226">
	<path fill-rule="evenodd" clip-rule="evenodd" fill="#FFFFFF" d="M87.35-17.3c7.6-9.767,13.733-20.25,18.4-31.45l-1.25-31l-0.5-0.5
		c-0.5-5.6-1.967-10.983-4.4-16.15l-14.35-29.85l-23.5-21.25L30-161.5c-18.667-3.833-32.5-4.25-41.5-1.25l-21.25,5.25l-1.5,1.75
		l-4,9v1.5c25.833,39.833,41.917,87,48.25,141.5l2.4-2.1C36.333-25.883,58.033-25.1,77.5-3.5C80.567-8.233,83.85-12.833,87.35-17.3z
		"/>
</symbol>
<symbol  id="Symbol_49" viewBox="-38.25 -164.726 144 161.226">
	<use xlink:href="#Symbol_41"  width="144" height="161.226" x="-38.25" y="-164.726" overflow="visible"/>
</symbol>
<symbol  id="Symbol_50" viewBox="-116.016 -230.4 249.044 310.4">
	<g id="Layer_3_4_">
		<path fill-rule="evenodd" clip-rule="evenodd" fill="#FFFFFF" d="M48.25,65c-8.667-4-10-7.583-4-10.75
			C50.583,58.417,51.917,62,48.25,65z M51.75,61c-1-7.667-6.5-11.583-16.5-11.75c-6.5-9.667-15.417-13.333-26.75-11L2.5,43
			l-2.25,7.5l1.95,2.3l5.5,4.9c5.667,4.6,11.933,8.283,18.8,11.05l1.25-0.25c5.9,5.5,12.733,9.333,20.5,11.5l1.5-1.75
			c2-4.167,3-7.583,3-10.25L51.75,61z M25,43.5c6,2.667,7.583,6,4.75,10C19.25,51.167,17.667,47.833,25,43.5z"/>
		<path fill-rule="evenodd" clip-rule="evenodd" fill="#030104" d="M48.25,65c3.667-3,2.333-6.583-4-10.75
			C38.25,57.417,39.583,61,48.25,65z M25,43.5c-7.333,4.333-5.75,7.667,4.75,10C32.583,49.5,31,46.167,25,43.5z"/>
		<path fill-rule="evenodd" clip-rule="evenodd" fill="#D48125" d="M8.5,38.25c11.333-2.333,20.25,1.333,26.75,11
			c10,0.167,15.5,4.083,16.5,11.75c16.433-11.233,25.533-26.667,27.3-46.3C79.617,8.433,79.1,2.367,77.5-3.5
			C58.033-25.1,36.333-25.883,12.4-5.85L10-3.75C-4.5,7.817-5.583,21.017,6.75,35.85L8.5,38.25z M105-68.75
			c8.5-5.867,15.733-13.05,21.7-21.55c5.6-7.967,7.483-16.583,5.65-25.85c-3.633-18.4-13.95-32.483-30.95-42.25
			c-20.9-12.033-38.867-10.567-53.9,4.4l14.25,6.5l23.5,21.25L99.6-96.4c2.433,5.167,3.9,10.55,4.4,16.15l0.5,0.5L105-68.75z
			 M-25.5-159.25l14-3.5c0.9-13.833-0.75-27.367-4.95-40.6c-1.5-4.767-3.833-8.917-7-12.45
			c-13.833-15.167-31.717-18.517-53.649-10.05c-6.434,2.467-12.301,5.817-17.601,10.05c-25.1,19.867-28.033,43.716-8.8,71.55
			c16.733-12.2,35.55-17.683,56.45-16.45L-25.5-159.25z"/>
	</g>
</symbol>
<symbol  id="Symbol_58" viewBox="-116.016 -230.4 249.044 310.4">
	<use xlink:href="#Symbol_50"  width="249.044" height="310.4" x="-116.016" y="-230.4" overflow="visible"/>
</symbol>
<symbol  id="aping" viewBox="0.012 -37.038 35.241 37.017">
	
		<use xlink:href="#Symbol_40"  width="352.443" height="304.53" x="-182.394" y="-164.726" transform="matrix(0.1 0 0 0.1 18.25 -14)" overflow="visible"/>
	
		<use xlink:href="#Symbol_49"  width="144" height="161.226" x="-38.25" y="-164.726" transform="matrix(0.1 0 0 0.1 18.25 -14)" overflow="visible"/>
	
		<use xlink:href="#Symbol_58"  width="249.044" height="310.4" x="-116.016" y="-230.4" transform="matrix(0.1 0 0 0.1 18.25 -14)" overflow="visible"/>
</symbol>
<path fill="#336535" d="M519.283,416.826C503,397,473,281,532.333,194.333s163.333-58.667,181.333-46
	S524.333,435.667,524.333,435.667L519.283,416.826z"/>
<path fill="#70A83B" d="M713.667,148.333c-15.325-10.785-92.99-32.667-152.352,14.555L615.145,187l61.478-15.437l-4.634,8.131
	L623,192.333l24.681,33.341l-8.814,16.174l-31.2-49.516l-51.753-24.918c-8.369,7.415-16.311,16.301-23.58,26.918
	c-9.67,14.125-16.955,29.032-22.326,44.173L553,315.129l37.409,18.761l-6.015,10.366L551,326.333l14.444,49.137l-8.749,12.938
	L542.677,323l-34.338-79.593c-24.939,76.346-2.398,157.173,10.944,173.419l5.051,18.841
	C524.333,435.667,731.667,161,713.667,148.333z"/>
<path fill="#FFFFFF" d="M625.147,272.623c-66.394,118.032-77.868,136.885-100.819,141.803s-10.024,67.214,18.349,63.115
	s267.717-310.656,267.717-310.656s3.4-4.917-8.546-14.754s-38.781-30.328-63.479-24.59s-40.702,18.793-50.702,28.126
	S653,217,644.333,231.667C635.667,246.333,625.147,272.623,625.147,272.623z"/>
<use xlink:href="#aping"  width="35.241" height="37.017" x="0.012" y="-37.038" transform="matrix(13.5774 0 0 -13.5774 542.5112 160.3716)" overflow="visible"/>
</svg>
