<?xml version="1.0" encoding="UTF-8" standalone="no"?>
<!-- Generator: Adobe Illustrator 16.0.0, SVG Export Plug-In . SVG Version: 6.00 Build 0)  -->

<svg
   version="1.1"
   id="Layer_1"
   x="0px"
   y="0px"
   width="524.07001"
   height="536.73401"
   viewBox="0 0 524.07001 536.73401"
   enable-background="new 0 0 1280 720"
   xml:space="preserve"
   sodipodi:docname="openguin mascot.svg"
   inkscape:version="1.1 (c68e22c387, 2021-05-23)"
   xmlns:inkscape="http://www.inkscape.org/namespaces/inkscape"
   xmlns:sodipodi="http://sodipodi.sourceforge.net/DTD/sodipodi-0.dtd"
   xmlns:xlink="http://www.w3.org/1999/xlink"
   xmlns="http://www.w3.org/2000/svg"
   xmlns:svg="http://www.w3.org/2000/svg"><defs
   id="defs46" /><sodipodi:namedview
   id="namedview44"
   pagecolor="#ffffff"
   bordercolor="#666666"
   borderopacity="1.0"
   inkscape:pageshadow="2"
   inkscape:pageopacity="0.0"
   inkscape:pagecheckerboard="0"
   showgrid="false"
   inkscape:zoom="0.79107571"
   inkscape:cx="119.45759"
   inkscape:cy="331.82665"
   inkscape:window-width="1920"
   inkscape:window-height="1001"
   inkscape:window-x="-9"
   inkscape:window-y="-9"
   inkscape:window-maximized="1"
   inkscape:current-layer="Layer_1" />
<symbol
   id="Symbol_32"
   viewBox="-182.394 -164.726 352.443 304.53">
	<g
   id="Layer_3_1_">
		<path
   fill-rule="evenodd"
   clip-rule="evenodd"
   fill="#314692"
   d="m 0.35,139.8 c 23.167,0.233 42.8,-9.483 58.9,-29.149 6.8,-8.301 14.933,-14.934 24.4,-19.9 51.1,-26.733 79.9,-68.283 86.4,-124.65 -4.5,-1.7 -8.433,-0.383 -11.8,3.95 C 143.217,-10.883 129.467,9.1 117,30 l -13.25,5.75 1.45,-5.3 c 6.867,-26.4 7.05,-52.8 0.55,-79.2 l -1.25,-31 -0.5,-0.5 c -0.5,-5.6 -1.967,-10.983 -4.4,-16.15 L 30,-161.5 c -18.667,-3.833 -32.5,-4.25 -41.5,-1.25 l -14.1,3.45 -21.45,-1.4 c -20.9,-1.233 -39.717,4.25 -56.45,16.45 l -6.95,8.2 c -9.833,11.966 -15.184,25.566 -16.05,40.8 -0.3,-4.733 -1.767,-9.067 -4.4,-13 -5.233,-7.733 -10.216,-15.5 -14.949,-23.3 -8.934,-14.733 -20.284,-24.2 -34.051,-28.4 -2.233,10.7 -2.966,21.517 -2.199,32.45 2.233,31.5 14.017,59 35.35,82.5 v 0.5 L -136,-27 l 19.5,26.25 22.5,23.5 11.25,18.5 43.25,65.25 c 6.934,10.366 15.15,19.533 24.65,27.5 4.5,3.8 9.567,5.733 15.2,5.8 z M 7.7,57.7 7.5,57.9 1.9,53.2 -1.75,50 l 2,0.5 1.95,2.3 z"
   id="path2" />
		<polygon
   fill-rule="evenodd"
   clip-rule="evenodd"
   fill="#23366e"
   points="0.25,50.5 -1.75,50 1.9,53.2 7.5,57.9 7.7,57.7 2.2,52.8 "
   id="polygon4" />
	</g>
</symbol>
<symbol
   id="Symbol_40"
   viewBox="-182.394 -164.726 352.443 304.53">
	<use
   xlink:href="#Symbol_32"
   width="352.44299"
   height="304.53"
   x="-182.394"
   y="-164.726"
   overflow="visible"
   id="use8" />
</symbol>
<symbol
   id="Symbol_41"
   viewBox="-38.25 -164.726 144 161.226">
	<path
   fill-rule="evenodd"
   clip-rule="evenodd"
   fill="#ffffff"
   d="m 87.35,-17.3 c 7.6,-9.767 13.733,-20.25 18.4,-31.45 l -1.25,-31 -0.5,-0.5 c -0.5,-5.6 -1.967,-10.983 -4.4,-16.15 L 85.25,-126.25 61.75,-147.5 30,-161.5 c -18.667,-3.833 -32.5,-4.25 -41.5,-1.25 l -21.25,5.25 -1.5,1.75 -4,9 v 1.5 c 25.833,39.833 41.917,87 48.25,141.5 l 2.4,-2.1 c 23.933,-20.033 45.633,-19.25 65.1,2.35 3.067,-4.733 6.35,-9.333 9.85,-13.8 z"
   id="path11" />
</symbol>
<symbol
   id="Symbol_49"
   viewBox="-38.25 -164.726 144 161.226">
	<use
   xlink:href="#Symbol_41"
   width="144"
   height="161.226"
   x="-38.25"
   y="-164.726"
   overflow="visible"
   id="use14" />
</symbol>
<symbol
   id="Symbol_50"
   viewBox="-116.016 -230.4 249.044 310.4">
	<g
   id="Layer_3_4_">
		<path
   fill-rule="evenodd"
   clip-rule="evenodd"
   fill="#ffffff"
   d="m 48.25,65 c -8.667,-4 -10,-7.583 -4,-10.75 6.333,4.167 7.667,7.75 4,10.75 z m 3.5,-4 c -1,-7.667 -6.5,-11.583 -16.5,-11.75 -6.5,-9.667 -15.417,-13.333 -26.75,-11 l -6,4.75 -2.25,7.5 1.95,2.3 5.5,4.9 c 5.667,4.6 11.933,8.283 18.8,11.05 l 1.25,-0.25 c 5.9,5.5 12.733,9.333 20.5,11.5 l 1.5,-1.75 c 2,-4.167 3,-7.583 3,-10.25 z M 25,43.5 c 6,2.667 7.583,6 4.75,10 C 19.25,51.167 17.667,47.833 25,43.5 Z"
   id="path17" />
		<path
   fill-rule="evenodd"
   clip-rule="evenodd"
   fill="#030104"
   d="m 48.25,65 c 3.667,-3 2.333,-6.583 -4,-10.75 -6,3.167 -4.667,6.75 4,10.75 z M 25,43.5 c -7.333,4.333 -5.75,7.667 4.75,10 2.833,-4 1.25,-7.333 -4.75,-10 z"
   id="path19" />
		<path
   fill-rule="evenodd"
   clip-rule="evenodd"
   fill="#d48125"
   d="m 8.5,38.25 c 11.333,-2.333 20.25,1.333 26.75,11 10,0.167 15.5,4.083 16.5,11.75 C 68.183,49.767 77.283,34.333 79.05,14.7 79.617,8.433 79.1,2.367 77.5,-3.5 58.033,-25.1 36.333,-25.883 12.4,-5.85 L 10,-3.75 C -4.5,7.817 -5.583,21.017 6.75,35.85 Z m 96.5,-107 c 8.5,-5.867 15.733,-13.05 21.7,-21.55 5.6,-7.967 7.483,-16.583 5.65,-25.85 -3.633,-18.4 -13.95,-32.483 -30.95,-42.25 -20.9,-12.033 -38.867,-10.567 -53.9,4.4 l 14.25,6.5 23.5,21.25 14.35,29.85 c 2.433,5.167 3.9,10.55 4.4,16.15 l 0.5,0.5 z m -130.5,-90.5 14,-3.5 c 0.9,-13.833 -0.75,-27.367 -4.95,-40.6 -1.5,-4.767 -3.833,-8.917 -7,-12.45 -13.833,-15.167 -31.717,-18.517 -53.649,-10.05 -6.434,2.467 -12.301,5.817 -17.601,10.05 -25.1,19.867 -28.033,43.716 -8.8,71.55 16.733,-12.2 35.55,-17.683 56.45,-16.45 z"
   id="path21" />
	</g>
</symbol>
<symbol
   id="Symbol_58"
   viewBox="-116.016 -230.4 249.044 310.4">
	<use
   xlink:href="#Symbol_50"
   width="249.04401"
   height="310.39999"
   x="-116.016"
   y="-230.39999"
   overflow="visible"
   id="use25" />
</symbol>
<symbol
   id="aping"
   viewBox="0.012 -37.038 35.241 37.017">
	
		<use
   xlink:href="#Symbol_40"
   width="352.44299"
   height="304.53"
   x="-182.394"
   y="-164.726"
   transform="matrix(0.1,0,0,0.1,18.25,-14)"
   overflow="visible"
   id="use28" />
	
		<use
   xlink:href="#Symbol_49"
   width="144"
   height="161.226"
   x="-38.25"
   y="-164.726"
   transform="matrix(0.1,0,0,0.1,18.25,-14)"
   overflow="visible"
   id="use30" />
	
		<use
   xlink:href="#Symbol_58"
   width="249.04401"
   height="310.39999"
   x="-116.016"
   y="-230.39999"
   transform="matrix(0.1,0,0,0.1,18.25,-14)"
   overflow="visible"
   id="use32" />
</symbol>
<path
   fill="#336535"
   d="m 22.170874,290.28134 c -16.2829997,-19.826 -46.283,-135.826 13.05,-222.492996 59.333,-86.667 163.332996,-58.667 181.332996,-46 18,12.667 -189.332996,287.333996 -189.332996,287.333996 z"
   id="path35" />
<path
   fill="#70a83b"
   d="m 216.55487,21.788344 c -15.325,-10.785 -92.99,-32.667 -152.351996,14.555 l 53.829996,24.112 61.478,-15.437 -4.634,8.131 -48.989,12.639 24.681,33.341 -8.814,16.173996 -31.2,-49.515996 -51.752996,-24.918 c -8.369,7.415 -16.311,16.301 -23.58,26.918 -9.67,14.125 -16.955,29.032 -22.326,44.172996 l 42.992,76.624 37.409,18.761 -6.015,10.366 -33.394,-17.923 14.444,49.137 -8.749,12.938 -14.018,-65.408 -34.338,-79.593 c -24.939,76.346 -2.3979997,157.173 10.944,173.419 l 5.051,18.841 c -0.001,0 207.332996,-274.666996 189.332996,-287.333996 z"
   id="path37" />
<path
   fill="#ffffff"
   d="m 128.03487,146.07834 c -66.393996,118.032 -77.867996,136.885 -100.818996,141.803 -22.9509997,4.918 -10.024,67.214 18.349,63.115 28.373,-4.099 267.716996,-310.655996 267.716996,-310.655996 0,0 3.4,-4.917 -8.546,-14.754 -11.946,-9.837 -38.781,-30.328 -63.479,-24.59000001 -24.698,5.73800001 -40.702,18.79300001 -50.702,28.12600001 -10,9.333 -34.667,61.333 -43.334,75.999996 -8.666,14.666 -19.186,40.956 -19.186,40.956 z"
   id="path39" />
<use
   xlink:href="#aping"
   width="35.241001"
   height="37.016998"
   x="0.012"
   y="-37.037998"
   transform="matrix(13.5774,0,0,-13.5774,45.399074,33.826944)"
   overflow="visible"
   id="use41" />
</svg>
